<?xml version="1.0" encoding="UTF-8" standalone="no"?>
<!-- Created with Inkscape (http://www.inkscape.org/) -->

<svg
   xmlns:dc="http://purl.org/dc/elements/1.1/"
   xmlns:cc="http://creativecommons.org/ns#"
   xmlns:rdf="http://www.w3.org/1999/02/22-rdf-syntax-ns#"
   xmlns:svg="http://www.w3.org/2000/svg"
   xmlns="http://www.w3.org/2000/svg"
   xmlns:sodipodi="http://sodipodi.sourceforge.net/DTD/sodipodi-0.dtd"
   xmlns:inkscape="http://www.inkscape.org/namespaces/inkscape"
   width="96.412979mm"
   height="62.893566mm"
   viewBox="0 0 341.62079 222.85122"
   id="svg4287"
   version="1.1"
   inkscape:version="0.92.3 (2405546, 2018-03-11)"
   sodipodi:docname="cupla_logo_bw.svg">
  <defs
     id="defs4289">
    <filter
       style="color-interpolation-filters:sRGB;"
       inkscape:label="Greyscale"
       id="filter1327">
      <feColorMatrix
         values="0 0 0 0 0 0 0 0 0 0 0 0 0 0 0 -0.5 -0.72 2.51 1.11 0 "
         id="feColorMatrix1325" />
    </filter>
    <filter
       style="color-interpolation-filters:sRGB;"
       inkscape:label="Greyscale"
       id="filter1331">
      <feColorMatrix
         values="0 0 0 0 0 0 0 0 0 0 0 0 0 0 0 -0.5 -0.72 2.51 1.11 0 "
         id="feColorMatrix1329" />
    </filter>
    <filter
       style="color-interpolation-filters:sRGB;"
       inkscape:label="Greyscale"
       id="filter1335">
      <feColorMatrix
         values="0 0 0 0 0 0 0 0 0 0 0 0 0 0 0 -0.5 -0.72 2.51 1.11 0 "
         id="feColorMatrix1333" />
    </filter>
    <filter
       style="color-interpolation-filters:sRGB;"
       inkscape:label="Greyscale"
       id="filter1339">
      <feColorMatrix
         values="0 0 0 0 0 0 0 0 0 0 0 0 0 0 0 -0.5 -0.72 2.51 1.11 0 "
         id="feColorMatrix1337" />
    </filter>
  </defs>
  <sodipodi:namedview
     id="base"
     pagecolor="#ffffff"
     bordercolor="#666666"
     borderopacity="1.0"
     inkscape:pageopacity="0.0"
     inkscape:pageshadow="2"
     inkscape:zoom="2.8284271"
     inkscape:cx="3.7372734"
     inkscape:cy="109.07021"
     inkscape:document-units="px"
     inkscape:current-layer="layer1"
     showgrid="true"
     inkscape:snap-bbox="true"
     inkscape:bbox-paths="true"
     inkscape:bbox-nodes="true"
     inkscape:snap-grids="true"
     inkscape:object-paths="true"
     inkscape:object-nodes="true"
     showguides="true"
     inkscape:guide-bbox="true"
     inkscape:snap-intersection-paths="true"
     inkscape:window-width="2560"
     inkscape:window-height="1375"
     inkscape:window-x="2560"
     inkscape:window-y="0"
     inkscape:window-maximized="1"
     fit-margin-top="0"
     fit-margin-left="0"
     fit-margin-right="0"
     fit-margin-bottom="0">
    <inkscape:grid
       type="xygrid"
       id="grid4835"
       originx="-138.52867"
       originy="-473.46047" />
    <sodipodi:guide
       position="231.47133,26.539546"
       orientation="0,1"
       id="guide4855"
       inkscape:locked="false" />
  </sodipodi:namedview>
  <metadata
     id="metadata4292">
    <rdf:RDF>
      <cc:Work
         rdf:about="">
        <dc:format>image/svg+xml</dc:format>
        <dc:type
           rdf:resource="http://purl.org/dc/dcmitype/StillImage" />
        <dc:title></dc:title>
      </cc:Work>
    </rdf:RDF>
  </metadata>
  <g
     inkscape:groupmode="layer"
     id="layer2"
     inkscape:label="hilfslinien"
     style="display:none"
     transform="translate(-138.52867,-356.05053)">
    <ellipse
       ry="66.241112"
       rx="139.96637"
       cy="474.61447"
       cx="431.27237"
       id="ellipse4859"
       style="fill:none;fill-opacity:1;stroke:#0000ff;stroke-width:2.91799045;stroke-miterlimit:4;stroke-dasharray:none;stroke-dashoffset:0;stroke-opacity:1" />
    <ellipse
       style="fill:none;fill-opacity:1;stroke:#0000ff;stroke-width:3.30312228;stroke-miterlimit:4;stroke-dasharray:none;stroke-dashoffset:0;stroke-opacity:1"
       id="path4841"
       cx="416.90048"
       cy="476.51288"
       rx="154.14571"
       ry="77.072853" />
    <circle
       style="fill:none;fill-opacity:1;stroke:#0000ff;stroke-width:3.30312228;stroke-miterlimit:4;stroke-dasharray:none;stroke-dashoffset:0;stroke-opacity:1"
       id="path4843"
       cx="349.18646"
       cy="489.17484"
       r="88.08326" />
    <circle
       r="88.08326"
       cy="552.09705"
       cx="294.73483"
       id="circle4851"
       style="fill:none;fill-opacity:1;stroke:#0000ff;stroke-width:3.30312228;stroke-miterlimit:4;stroke-dasharray:none;stroke-dashoffset:0;stroke-opacity:1" />
    <ellipse
       ry="77.072853"
       rx="154.14571"
       cy="601.08661"
       cx="325.79727"
       id="ellipse4853"
       style="fill:none;fill-opacity:1;stroke:#0000ff;stroke-width:3.30312228;stroke-miterlimit:4;stroke-dasharray:none;stroke-dashoffset:0;stroke-opacity:1" />
    <path
       style="fill:none;fill-rule:evenodd;stroke:#0000ff;stroke-width:1px;stroke-linecap:butt;stroke-linejoin:miter;stroke-opacity:1"
       d="m 303.26361,501.40451 -96.61159,50.9577 113.94686,-110.25578"
       id="path4861"
       inkscape:connector-curvature="0" />
  </g>
  <g
     inkscape:label="Layer 1"
     inkscape:groupmode="layer"
     id="layer1"
     transform="translate(-138.52867,-356.05053)">
    <g
       style="font-style:normal;font-weight:normal;font-size:45px;line-height:125%;font-family:sans-serif;letter-spacing:0px;word-spacing:0px;fill:#00599d;fill-opacity:1;stroke:none;stroke-width:1px;stroke-linecap:butt;stroke-linejoin:miter;stroke-opacity:1;filter:url(#filter1327)"
       id="text4837"
       transform="translate(-0.75522,-8.5133753)">
      <path
         d="m 332.92905,428.62558 q 0.125,-0.75 -0.375,-1.25 -0.375,-0.375 -1.25,-0.125 -1.375,0.375 -2.625,0.75 -1.125,0.25 -2.5,0.75 l -5.25,1.5 q -1.625,0.5 -3.375,1 -1.625,0.5 -3.375,1 -1.75,0.5 -3.5,1 -1.75,0.5 -3.5,1 -1.125,0.5 -1.125,1.25 -0.125,0.875 0.75,1.25 0.625,0.25 1.125,0.5 0.5,0.25 1.125,0.5 0.5,0.25 1,0.5 0.5,0.125 1.125,0.375 1.125,0.375 1.875,0.75 0.5,0.25 0.875,0.5 0.5,0.125 1,0.375 0,0.875 -0.125,1.625 0,0.625 0,1.125 -0.125,0.75 -0.375,2.75 -0.125,1.375 -0.25,2.75 -0.125,1.375 -0.375,2.875 -0.25,1.5 -0.5,2.875 -0.125,1.375 -0.375,2.625 l -0.75,4.875 q -0.125,1.25 -0.25,2.375 -0.125,1.125 -0.25,2.375 -0.125,0.625 -0.25,1.25 0,0.5 0,1.125 -0.25,1.25 -0.25,2.375 -1,0.125 -2,0.25 -0.875,0.125 -1.625,0.25 -0.75,0.125 -1.625,0.25 -0.875,0.125 -2,0.25 -0.875,0.125 -1.75,0.25 -0.875,0.125 -1.875,0.125 -0.875,0.25 -1.75,0.375 -0.875,0 -1.875,0.125 0.375,-2.125 0.75,-4.125 0.375,-2.125 0.625,-3.875 0.5,-3.25 1.5,-8 0.625,-2.875 1,-5.625 0.5,-2.75 1.125,-5.5 1,-5.5 1.5,-11 0.125,-0.875 0.125,-1.75 0.125,-0.875 0.25,-1.875 0.125,-0.875 0.125,-1.75 0,-0.875 0,-1.75 0.25,-0.625 -0.375,-1 -0.5,-0.375 -1.25,-0.125 l -11.125,3.25 -11.25,3.375 q -1.125,0.375 -1.25,1.25 -0.25,1 0.875,1.25 1,0.5 2,0.875 1.125,0.375 2.25,0.875 1.125,0.375 2.125,0.75 1.125,0.375 2.125,0.875 -0.25,1 -0.5,1.875 -0.125,0.875 -0.375,1.75 -0.25,0.875 -0.25,1.875 0,0.875 -0.125,1.875 l -0.375,2.875 q -0.25,2.625 -0.5,5.25 -0.125,2.625 -0.375,5.375 -0.125,2.75 0.125,5.375 0.25,2.625 1,5.25 0.75,2.25 1.75,4.375 1.125,2.125 2.5,4.125 1.375,2 2.75,3.75 1.5,1.75 3.125,3.5 0.625,0.75 1.625,0.125 1,-0.625 2.125,-1.375 1.125,-0.625 2.25,-1.25 1,-0.625 2.125,-1.125 1.125,-0.625 2.125,-1.25 1.375,-0.75 2.5,-1.5 1.25,-0.875 2.625,-1.5 l 5.25,8.25 q 0.125,0.25 0.75,0.375 0.5,0.125 1,0 l 11.375,-5.875 q 1,-0.625 1.125,-1.25 0,-1 -0.875,-1.125 l -3.875,-1.875 q -1,-0.5 -2.125,-1 -1.125,-0.5 -2.125,-1 -1.125,-0.5 -2.25,-0.875 -1,-0.5 -2.125,-1 0.75,-2 1.375,-3.875 0.75,-2 1.375,-3.75 0.625,-1.75 1.25,-3.625 0.75,-2 1.5,-4 1.375,-3.625 2.625,-7.125 1.25,-3.625 2.5,-7.25 1.25,-3.625 2.25,-7.25 1,-3.75 2,-7.75 z"
         style="font-style:normal;font-variant:normal;font-weight:500;font-stretch:normal;font-size:125px;font-family:KeilschriftOblique;-inkscape-font-specification:'KeilschriftOblique Medium';fill:#00599d;fill-opacity:1"
         id="path4235"
         inkscape:connector-curvature="0" />
      <path
         d="m 393.63022,456.87558 0,0.125 q 1,-5.125 -0.375,-10 -1.125,-4.5 -4,-8.625 -2.75,-3.625 -6.75,-6.5 -4.125,-2.75 -9,-3.75 -0.375,-0.125 -1.125,0.375 -1.875,1.75 -3.625,3.625 -0.75,1 -1.625,1.875 -0.75,0.875 -1.375,1.875 0.25,-1 0.375,-1.625 0.125,-0.625 0.125,-1.125 0.25,-1.25 0.25,-1.5 0.125,-0.375 0.125,-0.75 0,-0.375 0.125,-0.875 0,-1 0.375,-2.875 0.125,-0.5 -0.375,-1.25 -0.375,-0.5 -1.25,-0.25 -1.75,0.5 -3.5,1 -1.625,0.5 -3.375,1 -1.875,0.5 -3.625,1 -1.625,0.375 -3.375,0.875 -1.75,0.5 -3.5,1 -1.75,0.5 -3.5,1 -1.75,0.5 -3.5,1 -1.75,0.5 -3.5,1 -1,0.125 -1.25,1.375 0,0.875 0.875,1.25 1.75,0.5 3.25,1 1.625,0.375 3,0.875 1.5,0.375 3,0.875 1.625,0.375 3.125,0.875 0,3.75 -0.25,7.375 -0.125,3.5 -0.375,7 -0.25,3.5 -0.625,7.125 -0.25,3.5 -0.625,7.25 -0.375,4 -0.75,8.125 -0.25,4 -0.5,8 -0.625,8.125 -0.75,15.875 -0.625,0.5 -1.125,0.875 -0.375,0.5 -0.75,0.75 -0.75,0.625 -1.875,1.5 -1.125,0.875 -2.25,1.75 -1.125,0.875 -2.375,1.75 -0.625,0.5 -0.625,1.5 0.125,0.875 1.25,0.875 l 27,0 q 1,0 1.375,-1.125 0.375,-1 -0.5,-1.375 -2.375,-1.375 -4.625,-2.625 -2.25,-1.25 -4.75,-2.5 -0.25,-0.25 -0.625,-0.375 -0.25,0 -0.625,-0.25 -0.625,-0.375 -1.25,-0.625 0.5,-2.75 0.875,-5.5 0.375,-2.625 0.875,-5.375 0.5,-2.75 0.875,-5.375 0.5,-2.75 1.125,-5.5 1.125,2.375 2.375,4.375 1.5,2.125 3.125,3.875 0.125,0.125 0.625,0.125 0.375,0.25 0.625,0 5.25,-1.5 10.125,-4.5 2.5,-1.375 4.625,-3.125 2.125,-1.75 4.125,-3.75 4.25,-4 6.75,-8.75 2.75,-4.75 3.5,-10.25 z m -14.625,-1.25 q -1,6.5 -3.875,12.5 -1.625,3.125 -3.5,5.875 -1.875,2.75 -4.375,5.25 -3.125,-4.125 -4.625,-10 -1.5,-5.625 -0.625,-11 0.25,-1.75 0.625,-3.375 0.5,-1.75 1.125,-3.5 1.125,-3.5 3,-6.25 0.625,-1.125 1.5,-2.125 0.875,-1.125 1.875,-2.375 1,-1.25 2,-2.25 1,-1 2,-2 3,3.75 4.375,9 0.625,2.5 0.75,5.125 0.125,2.625 -0.25,5.125 z"
         style="font-style:normal;font-variant:normal;font-weight:500;font-stretch:normal;font-size:125px;font-family:KeilschriftOblique;-inkscape-font-specification:'KeilschriftOblique Medium';fill:#00599d;fill-opacity:1"
         id="path4237"
         inkscape:connector-curvature="0" />
      <path
         d="m 427.07553,393.00058 q 0.375,-1.875 -1.625,-1.25 -1.75,0.5 -3.375,1 -1.625,0.5 -3.375,1 -1.75,0.5 -3.625,1 -1.75,0.5 -3.5,1 -1.75,0.5 -3.625,1 -1.75,0.5 -3.5,1 -1.75,0.5 -3.5,1 -1.75,0.5 -3.5,1 -1.125,0.25 -1.125,1.25 -0.25,1 0.625,1.375 0.75,0.25 1.5,0.625 0.75,0.25 1.375,0.5 0.75,0.25 1.5,0.5 0.75,0.125 1.5,0.375 0.625,0.25 1.125,0.5 0.625,0.25 1.25,0.5 0.625,0.25 1.125,0.5 0.625,0.25 1.25,0.5 -0.125,4.25 -0.25,8.5 -0.125,4.125 -0.375,8.375 -0.25,4.25 -0.5,8.5 -0.25,4.125 -0.5,8.375 -0.625,9.25 -1.125,18 -0.25,4.375 -0.375,8.875 -0.125,4.375 -0.25,9 -0.875,0.5 -1.75,0.875 -0.75,0.375 -1.375,0.75 -0.75,0.25 -1.5,0.75 -0.75,0.375 -1.75,0.875 -1,0.5 -1.875,0.875 -0.875,0.375 -1.875,0.875 -0.875,0.375 -1.75,0.875 -0.875,0.375 -1.875,0.875 -1.125,0.375 -0.875,1.5 0.25,1 1.25,1 l 31.25,0 q 1,0 1.25,-1 0.375,-0.75 -0.25,-1.375 -0.875,-0.625 -1.75,-1.125 -0.75,-0.625 -1.5,-1.25 -0.75,-0.625 -1.625,-1.125 -0.75,-0.5 -1.5,-1.125 l 0.125,0 q -2.25,-2 -4.75,-3.375 0.75,-4.75 1.5,-9.375 0.75,-4.625 1.75,-9.25 0.875,-4.625 1.75,-9.25 1,-4.625 2,-9.25 1.125,-5.625 2.125,-11.125 1.125,-5.625 2.125,-11.25 2.25,-11 3.75,-22.375 z"
         style="font-style:normal;font-variant:normal;font-weight:500;font-stretch:normal;font-size:125px;font-family:KeilschriftOblique;-inkscape-font-specification:'KeilschriftOblique Medium';fill:#00599d;fill-opacity:1"
         id="path4239"
         inkscape:connector-curvature="0" />
      <path
         d="m 479.74936,481.12558 q -0.5,-0.25 -1,-0.625 -0.5,-0.375 -1.125,-0.75 -0.625,-0.25 -1.125,-0.625 -0.5,-0.375 -1,-0.625 -0.5,-0.25 -1,-0.5 -0.375,-0.375 -0.75,-0.625 -0.375,-0.25 -0.875,-0.5 -0.375,-0.375 -0.875,-0.625 0.125,-0.125 0.125,-0.125 0,-0.125 -0.125,0 l 0,-0.125 q 0,-0.125 0,-0.25 0.125,-0.125 0.125,-0.125 0,-0.25 0,-0.25 0.125,0 0.125,-0.125 0.25,-1 0.375,-2.125 0.25,-1.125 0.5,-2.375 0.25,-1.125 0.375,-2.25 0.125,-1.125 0.25,-2.125 0.125,-0.5 0.125,-1 0,-0.5 0.125,-1.125 0.125,-0.5 0.125,-1 0.125,-0.5 0.25,-1 0.375,-4.25 0.375,-8.375 0,-2 -0.125,-4 -0.125,-2 -0.625,-4 -0.5,-2.75 -1.5,-5.375 -0.875,-2.625 -2.25,-5.125 -2.625,-4.875 -7.25,-7.875 -0.625,-0.625 -1.375,0 -0.875,0.5 -1.625,1 -0.75,0.5 -1.5,1 -1.5,0.875 -3.25,2 -2.125,1.375 -4.25,2.875 -2,1.5 -4.125,2.875 -2.125,1.375 -4.25,2.75 -2.125,1.375 -4.25,2.75 -1,0.625 -0.625,1.625 0.375,1 1.375,0.75 1.75,-0.375 3.25,-0.625 1.625,-0.25 3.375,-0.5 1.75,-0.25 3.25,-0.375 1.625,-0.25 3.375,-0.5 1.375,-0.25 2.875,-0.5 1.5,-0.25 2.875,-0.5 1.375,-0.25 2.75,-0.375 1.5,-0.25 2.875,-0.5 -0.125,1.25 -0.25,2.625 -0.125,1.375 -0.25,2.75 -0.25,1.375 -0.375,2.625 0,1.25 -0.25,2.25 l -2,0 q -5,0 -10.25,1.75 -2.625,0.875 -5,2.25 -2.25,1.25 -4.5,3 -4.375,3.25 -7.25,7.75 -2.875,4.75 -3.25,9.875 -0.125,0.625 -0.25,1.25 0,0.625 0,1.125 0.25,1.25 0.375,1.75 l 0.125,2.375 q 0.25,0.75 0.25,1.375 0.125,0.375 0.125,1 0,0.625 0.125,0.875 0,0.25 0.5,0.75 0.5,0.25 0.625,0.25 2.5,0.125 4.875,-0.375 2.375,-0.375 4.875,-1.25 4.875,-1.625 9,-4.875 1.25,-1 2.375,-2 1.125,-1 2.25,-2.125 1.25,-1 2.125,-2.125 1,-1.25 2,-2.625 -0.25,1.75 -0.375,3.625 -0.125,1.75 -0.25,3.5 -0.125,1.75 -0.25,3.5 0,1.75 -0.125,3.5 0,0.5 0.5,1 0.375,0.375 0.875,0.25 0.25,-0.125 0.625,-0.125 0.375,0 0.625,-0.125 0.375,-0.125 0.625,-0.125 0.375,0 0.625,-0.125 l 8.25,-1.5 q 2,-0.25 4,-0.625 2,-0.375 4.125,-0.625 l 0.75,-2.5 z m -19.25,-22.375 q -3.125,5.75 -7.125,10.75 -4.375,5.125 -10.25,7.5 0.375,-1.75 1,-3.625 0.625,-1.875 1.625,-3.625 2,-3.875 5.125,-6.25 1,-1 2.125,-1.75 1.25,-0.75 2.5,-1.375 1.25,-0.625 2.375,-1 1.25,-0.375 2.625,-0.625 z"
         style="font-style:normal;font-variant:normal;font-weight:500;font-stretch:normal;font-size:125px;font-family:KeilschriftOblique;-inkscape-font-specification:'KeilschriftOblique Medium';fill:#00599d;fill-opacity:1"
         id="path4241"
         inkscape:connector-curvature="0" />
    </g>
    <path
       style="fill:#f17017;fill-opacity:1;fill-rule:evenodd;stroke:#f17017;stroke-width:1px;stroke-linecap:butt;stroke-linejoin:miter;stroke-opacity:1;filter:url(#filter1331)"
       d="m 374.5,364.6122 c 0,0 -26.53078,-0.65645 -39.75,0.25 -11.48781,0.78774 -23.01111,1.99449 -34.25,4.5 -5.63341,1.25587 -11.42247,2.5057 -16.5,5.25 -5.57596,3.01368 -10.62122,7.19097 -14.75,12 -3.96606,4.6195 -7.47146,9.92709 -9.25,15.75 -1.48622,4.86585 -1.33946,10.16178 -0.9434,15.2341 0.52106,6.67324 2.44592,13.18585 4.33704,19.6067 1.50646,5.11482 3.5475,10.0612 5.56254,14.99784 1.0994,2.6934 3.55803,7.96921 3.55803,7.96921 l -36.56113,59.67085 -36.1317,-60.27016 c 0,0 4.40803,-11.35379 6.49832,-17.07311 2.02889,-5.55134 3.68629,-11.23909 5.86482,-16.73343 2.81125,-7.09011 5.55296,-14.26117 9.28558,-20.91251 4.31138,-7.68267 8.75562,-15.55524 15.0299,-21.73949 6.71598,-6.61961 14.9458,-11.78146 23.5,-15.75 11.00671,-5.10632 22.98376,-8.31706 35,-10 9.90334,-1.38701 20.02643,-0.72651 30,0 16.63197,1.21154 49.5,7.25 49.5,7.25 z"
       id="path4247"
       inkscape:connector-curvature="0"
       sodipodi:nodetypes="caaaaaaaacccaaaaaaac" />
    <path
       style="fill:#00599d;fill-opacity:1;fill-rule:evenodd;stroke:#00599d;stroke-width:1;stroke-linecap:butt;stroke-linejoin:miter;stroke-miterlimit:4;stroke-dasharray:none;stroke-opacity:1;filter:url(#filter1335)"
       d="m 232.99701,532.26314 c 0,0 -6.40971,1.0833 -9.61348,1.63131 -2.60825,0.44615 -5.21497,0.90115 -7.82295,1.34882 -5.79934,0.99548 -11.73325,1.38965 -17.40022,2.97356 -5.53067,1.54581 -10.85621,3.82203 -16.02544,6.3234 -3.59105,1.7377 -7.13949,3.64029 -10.35313,6.00413 -4.68955,3.44947 -8.90118,7.54795 -12.86338,11.81313 -2.12728,2.28994 -3.88587,4.89661 -5.81724,7.35404 -2.18071,2.77469 -6.51595,8.34458 -6.51595,8.34458 0,0 -3.42769,-4.97546 -4.48965,-7.77272 -1.58299,-4.16966 -2.20399,-8.67414 -2.68278,-13.1084 -0.43852,-4.06124 -0.51385,-8.18376 -0.16231,-12.25345 0.30757,-3.56075 0.91732,-7.12504 1.97834,-10.53792 0.9968,-3.20631 2.50356,-6.24535 4.08211,-9.20882 1.66826,-3.13189 3.52539,-6.18268 5.66939,-9.01024 2.90904,-3.83651 6.24724,-7.34634 9.69564,-10.70638 3.49566,-3.40607 7.53988,-6.20969 11.10454,-9.54348 2.81558,-2.63322 5.48926,-5.41793 8.10755,-8.2474 2.67302,-2.88862 5.24746,-5.86963 7.75378,-8.90402 2.48029,-3.00287 7.20344,-9.19956 7.20344,-9.19956 z"
       id="path4249"
       inkscape:connector-curvature="0"
       sodipodi:nodetypes="caaaaaaacaaaaaaaaaacc" />
    <path
       style="fill:#f17017;fill-opacity:1;fill-rule:evenodd;stroke:#f17017;stroke-width:1px;stroke-linecap:butt;stroke-linejoin:miter;stroke-opacity:1;filter:url(#filter1339)"
       d="m 281.70061,476.16267 c 2.63625,3.17132 5.14623,6.44887 7.8569,9.55682 2.27587,2.60943 4.57633,5.20616 7.05279,7.62606 3.37519,3.29811 6.74365,6.66814 10.6129,9.36968 4.46451,3.11716 9.3557,5.64442 14.36832,7.77096 4.30885,1.82797 8.81538,3.23307 13.38659,4.23892 7.25327,1.59601 14.69086,2.33391 22.10229,2.81122 10.41753,0.6709 20.88209,0.35338 31.31725,0.0662 C 418.97011,516.76107 480,512.3622 480,512.3622 c 0,0 -43.21826,13.53905 -65.18789,18.96805 -9.55714,2.3617 -19.24053,4.20614 -28.93711,5.90695 -11.57317,2.02997 -23.20212,3.78229 -34.875,5.125 -7.97514,0.91737 -15.97759,1.70769 -24,2 -7.60591,0.27713 -15.23387,0.21217 -22.83167,-0.23519 -5.57024,-0.32798 -11.1349,-0.90318 -16.64336,-1.79314 -3.97094,-0.64155 -7.85202,-1.75332 -11.7945,-2.55131 -4.25416,-0.86107 -8.52351,-1.64672 -12.79577,-2.41297 -2.67929,-0.48054 -5.3666,-0.9153 -8.05042,-1.36987 -3.08892,-0.52318 -6.2063,-0.89805 -9.26795,-1.56244 -2.17442,-0.47185 -6.45011,-1.71838 -6.45011,-1.71838 l 37.31256,-62.81409 c 0,0 3.48048,4.16308 5.22183,6.25786 z"
       id="path4251"
       inkscape:connector-curvature="0"
       sodipodi:nodetypes="aaaaaaaacaaaaaaaaaacca" />
  </g>
</svg>
